        <svg xmlns="http://www.w3.org/2000/svg" width="76" height="40" viewBox="0 0 76 40" fill="none"><g clip-path="url(#clip0)" fill="#E30D76"><path d="M53.7 12.3c-.8 0-1.5-.6-1.5-1.5 0-.8.7-1.4 1.5-1.4.9 0 1.5.6 1.5 1.4 0 .9-.6 1.5-1.5 1.5zm-1.1 2.5h2.2v12h-2.2v-12zM60.4 13.2v1.6h3.9v1.8h-3.9v10.3h-2.2V16.6h-1.7v-1.8h1.7v-1.6c0-2.5 2-4.1 4.4-4.1l1.8.2v2c-.4-.2-1.1-.3-1.6-.3-1.7 0-2.4 1-2.4 2.2zM75.7 21.4h-9c.1 2.3 1.4 3.8 3.5 3.8 2.2 0 3-1.2 3.2-2.1h2.2c-.5 2.2-2.1 4-5.4 4-3.8 0-5.8-2.7-5.8-6.2 0-3.6 2.4-6.2 5.8-6.2s5.5 2.3 5.5 6.2v.5zm-9-1.6h6.8c-.3-2.2-1.5-3.3-3.3-3.3-1.9 0-3.2 1.3-3.5 3.3zM50 24.8l-1.2.3c-.6 0-1.6-.3-1.6-2V9.4H45V23c0 2.9 1.8 3.9 3.5 3.9.8 0 1.6-.2 2.2-.6h.1l-.7-1.6zM38.4 0H1.6C.7 0 0 .7 0 1.6v36.8c0 .9.7 1.6 1.6 1.6h36.8c.9 0 1.6-.7 1.6-1.6V1.6c0-.9-.7-1.6-1.6-1.6zm-27 32.4H9l2.8-6.6-5.5-13.2H9L13 22.8l4.2-10.2h2.6l-8.3 19.8zM33.7 21c0 5.3-3.5 5.9-6.1 5.9-4.1 0-6-1.9-6-6v-8.4h2.4v8.5c0 1.6.4 3.6 3.6 3.6s3.6-2 3.6-3.6v-8.5h2.5v8.5z"/></g><defs><clipPath id="clip0"><path fill="#fff" d="M0 0h76v40H0z"/></clipPath></defs></svg>
